<?xml version="1.0" encoding="UTF-8" standalone="no"?>
<svg
   xmlns:dc="http://purl.org/dc/elements/1.1/"
   xmlns:cc="http://creativecommons.org/ns#"
   xmlns:rdf="http://www.w3.org/1999/02/22-rdf-syntax-ns#"
   xmlns:svg="http://www.w3.org/2000/svg"
   xmlns="http://www.w3.org/2000/svg"
   xmlns:sodipodi="http://sodipodi.sourceforge.net/DTD/sodipodi-0.dtd"
   xmlns:inkscape="http://www.inkscape.org/namespaces/inkscape"
   width="793"
   height="793.70081"
   viewBox="0 0 209.81459 210"
   version="1.1"
   id="svg8"
   inkscape:version="1.0.2 (e86c8708, 2021-01-15)"
   sodipodi:docname="logo.svg">
  <defs
     id="defs2">
    <pattern
       patternUnits="userSpaceOnUse"
       width="256"
       height="256"
       id="sand_bitmap"
       inkscape:stockid="Sand (bitmap)" />
  </defs>
  <sodipodi:namedview
     id="base"
     pagecolor="#ffffff"
     bordercolor="#666666"
     borderopacity="1.0"
     inkscape:pageopacity="0.0"
     inkscape:pageshadow="2"
     inkscape:zoom="0.13"
     inkscape:cx="-306.69282"
     inkscape:cy="103.29597"
     inkscape:document-units="mm"
     inkscape:current-layer="layer1"
     inkscape:document-rotation="0"
     showgrid="false"
     inkscape:window-width="1322"
     inkscape:window-height="943"
     inkscape:window-x="195"
     inkscape:window-y="25"
     inkscape:window-maximized="0"
     inkscape:snap-global="false"
     units="px" />
  <metadata
     id="metadata5">
    <rdf:RDF>
      <cc:Work
         rdf:about="">
        <dc:format>image/svg+xml</dc:format>
        <dc:type
           rdf:resource="http://purl.org/dc/dcmitype/StillImage" />
        <dc:title />
      </cc:Work>
    </rdf:RDF>
  </metadata>
  <g
     inkscape:label="Ebene 1"
     inkscape:groupmode="layer"
     id="layer1">
    <style
       type="text/css"
       id="style1306"><![CDATA[
      .testrect2
     {
     fill:#ff0000;
     }
     
      .dark-mode2
     {
     fill:#ff00ff;
     }
     
     
    ]]></style>
    <path
       id="maincontent"
       class="testrect2"
       style="fill:#000000;fill-opacity:1;stroke:none;stroke-width:0;stroke-miterlimit:4;stroke-dasharray:none"
       d="M 104.38618,7.1644205 C 49.482788,7.1644205 4.9999471,51.733002 5,106.63638 c 0,26.38151 10.48004,51.68229 29.134647,70.33679 18.65458,18.65451 43.955784,29.13468 70.337303,29.13466 26.38153,2e-5 51.68273,-10.48015 70.33731,-29.13466 18.65461,-18.6545 29.13454,-43.95528 29.13465,-70.33679 3e-5,-26.381604 -10.48001,-51.682687 -29.13465,-70.337304 C 156.15466,17.64446 130.85356,7.1644205 104.47195,7.1644205 Z m -0.29663,3.7796145 h 0.0672 c 52.67531,0 95.37711,42.701804 95.37711,95.377125 0,52.67532 -42.7018,95.3771 -95.37711,95.37712 -52.675339,-1e-5 -95.3771301,-42.70179 -95.3771301,-95.37712 0,-52.649109 42.6608471,-95.377125 95.3099501,-95.377125 z m 0.078,5.830652 c -49.838047,0 -90.217281,40.456714 -90.217228,90.294743 1.06e-4,23.94757 9.513411,46.91431 26.446956,63.84778 16.933518,16.93345 39.900197,26.44698 63.847792,26.44697 23.94757,1e-5 46.91475,-9.51352 63.8483,-26.44697 16.93354,-16.93347 26.44635,-39.90021 26.44642,-63.84778 3e-5,-23.947651 -9.51285,-46.914222 -26.44642,-63.84778 C 151.15983,26.288095 128.19275,16.774687 104.2451,16.774687 Z m -0.26924,3.431315 h 0.061 c 47.81553,0 86.57765,38.762137 86.57765,86.577658 0,47.81553 -38.76212,86.57764 -86.57765,86.57766 -47.815547,-1e-5 -86.578169,-38.76212 -86.578169,-86.57766 0,-47.791727 38.725463,-86.577658 86.517189,-86.577658 z m -0.24546,19.148183 5.3e-4,5.3e-4 c -5.014009,0.02265 -10.29205,0.957296 -15.587156,2.973461 -11.297206,4.301551 -17.865407,14.554041 -17.686761,30.340265 -0.02733,-0.0013 -0.05482,-0.0019 -0.08218,-0.0031 0.102288,6.057926 1.309185,13.058351 3.517106,20.122803 7.77322,2.642486 17.212892,14.849736 17.212892,14.849736 0,0 -10.385372,13.77493 -20.318121,15.20942 -0.138033,-0.005 -1.220417,-0.0164 -1.35599,-0.0243 -0.181769,0.009 -0.361738,0.0209 -0.546232,0.0243 -1.079236,2e-5 -2.127674,-0.1771 -3.133646,-0.49558 -7.950199,-1.69011 -10.341741,-7.29122 -10.341503,-13.99501 -2.7e-5,-0.0166 -2.7e-5,-0.0335 0,-0.0501 8.73e-4,-0.22266 0.0077,-0.4455 0.0181,-0.66869 -0.01122,-0.22315 -0.01749,-0.44605 -0.0181,-0.66869 -2.7e-5,-0.0166 -2.7e-5,-0.033 0,-0.0496 -2.38e-4,-6.70379 2.391304,-12.304924 10.341503,-13.995019 1.005972,-0.318479 2.05441,-0.495604 3.133646,-0.495578 0.184494,0.004 0.364463,0.01532 0.546232,0.02429 0.135573,-0.008 0.266594,-0.01868 0.404627,-0.02429 0.240586,-0.05757 0.48641,-0.09617 0.73586,-0.120406 -0.973985,-2.366063 -1.780726,-5.072269 -2.376594,-8.046538 -0.744987,-3.71879 -1.115086,-7.654549 -1.130167,-11.578621 -11.07485,0.411638 -17.26176,3.727672 -23.604749,12.438001 -6.745393,9.262896 -9.037505,23.379521 -3.705225,37.616311 4.274106,11.41111 14.471041,18.0372 30.176469,17.83199 0.0021,-0.005 0.05011,-0.10025 0.05011,-0.10025 6.500204,-0.13178 14.40307,-2.37485 21.90668,-6.45697 4.369461,-6.64433 12.551179,-13.07983 12.551179,-13.07983 0,0 13.66213,10.47188 15.08487,20.48661 -0.005,0.13917 -0.0162,1.23013 -0.0238,1.36683 0.009,0.18327 0.0206,0.36485 0.0238,0.55088 3e-5,1.08814 -0.17555,2.1452 -0.49144,3.1595 -1.67626,8.0158 -7.23132,10.42697 -13.8803,10.42675 -0.0165,2e-5 -0.0332,2e-5 -0.0496,0 -0.22082,-7.9e-4 -0.44217,-0.008 -0.66352,-0.0186 -0.22133,0.0107 -0.44218,0.0179 -0.663,0.0186 -0.0165,2e-5 -0.0332,2e-5 -0.0496,0 -6.648979,2.2e-4 -12.204038,-2.41095 -13.880306,-10.42675 -0.315886,-1.01429 -0.491463,-2.07136 -0.491437,-3.1595 0.003,-0.18603 0.01508,-0.36761 0.02376,-0.55088 -0.008,-0.1367 -0.01796,-0.26908 -0.02376,-0.40824 -0.257598,-1.09484 -0.167825,-2.28608 0.176742,-3.52691 -2.012342,1.03725 -4.244261,1.99246 -6.669379,2.83754 -3.903953,1.36039 -8.093127,2.36214 -12.326884,2.98897 0.769911,13.8115 7.168039,22.87256 17.608735,26.84797 14.120339,5.37648 28.121769,3.06535 37.308849,-3.73569 9.18707,-6.80105 12.32408,-13.42241 12.38011,-25.98394 0.001,-0.41458 -0.009,-0.82692 -0.0294,-1.23661 0.0111,1.3e-4 0.0219,-1.2e-4 0.0331,0 -0.43056,-4.5674 -1.54379,-9.59276 -3.28819,-14.68954 -0.86222,-1.92233 -1.78858,-3.69838 -2.76571,-5.29993 -7.64318,-4.3077 -14.15728,-12.94082 -14.15728,-12.94082 0,0 12.02653,-15.56209 20.10783,-15.35772 0.3973,0.01072 0.78574,0.05825 1.16219,0.148309 0.13803,0.0054 0.26905,0.01638 0.40462,0.02429 0.1818,-0.0094 0.36171,-0.02095 0.54624,-0.02429 1.07923,-2.6e-5 2.12767,0.177086 3.13364,0.495578 7.9502,1.690097 10.34151,7.291223 10.34151,13.995013 v 5.3e-4 c 0,0.0166 2e-5,0.0324 0,0.0491 -8e-4,0.22264 -0.007,0.44553 -0.0186,0.6687 0.0107,0.22317 0.0176,0.44707 0.0186,0.66972 2e-5,0.0166 2e-5,0.0324 0,0.0491 2.1e-4,6.70381 -2.39131,12.30492 -10.34151,13.99502 -1.00597,0.31848 -2.05441,0.49558 -3.13364,0.49557 -0.18453,-0.003 -0.36444,-0.0153 -0.54624,-0.0243 -0.13557,0.008 -1.21795,0.0186 -1.35599,0.0243 -0.60362,-0.0872 -1.20877,-0.22079 -1.81332,-0.39325 1.24219,2.36546 2.36112,5.06601 3.30989,8.04652 1.01279,3.18201 1.78019,6.5447 2.30941,9.9591 13.42657,-0.89925 22.24892,-7.32109 26.14517,-17.72347 5.33247,-14.23681 3.04017,-28.352903 -3.70519,-37.615796 -6.74545,-9.262875 -13.31236,-12.425942 -25.77106,-12.482444 -0.0941,-5.29e-4 -0.18772,0.0019 -0.28162,0.0026 -4.40581,0.450527 -9.14138,1.401855 -13.93301,2.815331 -2.37247,1.019534 -4.50379,2.146937 -6.34534,3.354834 -0.60735,1.236176 -1.33681,2.450598 -2.1394,3.620969 -4.50493,6.569228 -11.27942,11.761554 -11.27942,11.761554 0,0 -16.990118,-13.347866 -15.08488,-21.445201 0.006,-0.139155 0.01619,-0.271007 0.02379,-0.407728 -0.009,-0.183272 -0.02066,-0.364839 -0.02379,-0.550871 0,-1.088138 0.175577,-2.145204 0.491463,-3.159498 1.676268,-8.015774 7.231327,-10.42698 13.880287,-10.426752 0.0165,-2.7e-5 0.0332,-2.7e-5 0.0496,0 0.22082,7.93e-4 0.44217,0.008 0.66352,0.0186 0.22135,-0.01072 0.4422,-0.01767 0.66302,-0.0186 0.0165,-2.7e-5 0.0332,-2.7e-5 0.0496,0 6.64895,-2.28e-4 12.20401,2.410978 13.88028,10.426752 0.31588,1.014294 0.49146,2.07136 0.49143,3.159498 -0.003,0.186032 -0.0149,0.367599 -0.0238,0.550871 0.008,0.136721 0.0179,1.227688 0.0238,1.366843 -0.0415,0.292375 -0.0965,0.58511 -0.15864,0.877982 0.11078,-0.03379 0.20672,-0.06332 0.31729,-0.09715 3.01183,-1.730301 6.72025,-3.219511 10.9642,-4.347022 2.29237,-0.608978 4.67016,-1.090679 7.08639,-1.450557 -0.59415,-10.438273 -3.94965,-16.45875 -12.28194,-22.627042 -5.7419,-4.250661 -13.36444,-6.747399 -21.72115,-6.709669 z"
       sodipodi:nodetypes="ssssssssssssssssssssssssssssssccsccccccccsccsccccccscscccccccccsccsccccccscsscccccccccccssccsccccccscssscccscccccsccscccccccscsc" />
  </g>
</svg>
